<?xml version="1.0" standalone="no"?>
<!DOCTYPE svg PUBLIC "-//W3C//DTD SVG 20010904//EN"
 "http://www.w3.org/TR/2001/REC-SVG-20010904/DTD/svg10.dtd">
<svg version="1.0" xmlns="http://www.w3.org/2000/svg"
 width="256.000000pt" height="256.000000pt" viewBox="0 0 256.000000 256.000000"
 preserveAspectRatio="xMidYMid meet">
<metadata>
Created by potrace 1.11, written by Peter Selinger 2001-2013
</metadata>
<g transform="translate(0.000000,256.000000) scale(0.100000,-0.100000)"
fill="#000000" stroke="none">
<path d="M425 2506 c-131 -42 -219 -134 -254 -264 -7 -26 -18 -42 -27 -42 -8
0 -26 -11 -39 -25 -22 -21 -25 -33 -25 -95 0 -62 3 -74 25 -95 13 -14 31 -25
40 -25 13 0 15 -19 15 -127 0 -71 5 -148 11 -172 28 -124 125 -245 242 -300
l67 -32 0 -48 0 -48 -87 -43 c-208 -102 -353 -333 -353 -560 1 -170 93 -314
249 -389 l76 -36 236 -3 237 -4 5 -45 c3 -33 13 -54 36 -77 l31 -31 290 0 290
0 32 33 33 32 3 165 3 165 39 0 c35 0 40 -3 46 -28 37 -168 135 -287 283 -343
158 -59 340 -19 461 101 120 121 160 303 101 461 -56 148 -175 246 -343 283
l-28 6 0 120 0 120 38 34 c34 31 37 39 37 86 0 47 -3 55 -37 86 l-38 34 0 119
0 120 165 3 165 3 32 33 33 32 0 370 0 370 -33 32 -32 33 -370 0 -370 0 -32
-33 -33 -32 -3 -165 -3 -165 -177 0 -178 0 -11 31 c-8 19 -23 34 -43 42 -23 9
-33 21 -41 52 -29 107 -103 195 -204 242 -60 28 -61 28 -290 30 -167 2 -241
-1 -270 -11z m526 -92 c57 -27 115 -84 140 -138 37 -82 73 -76 -411 -76 -469
0 -442 -4 -419 57 17 47 59 100 100 129 68 47 114 54 339 51 184 -2 210 -4
251 -23z m929 -94 l0 -120 200 0 200 0 0 120 0 120 64 0 c102 0 96 22 96 -360
0 -285 -2 -331 -16 -344 -13 -14 -59 -16 -344 -16 -285 0 -331 2 -344 16 -14
13 -16 59 -16 344 0 382 -6 360 96 360 l64 0 0 -120z m320 40 l0 -80 -120 0
-120 0 0 80 0 80 120 0 120 0 0 -80z m-1000 -280 l0 -40 -520 0 -520 0 0 40 0
40 520 0 520 0 0 -40z m442 -205 l3 -165 33 -32 32 -33 165 -3 165 -3 0 -120
0 -119 -37 -34 c-35 -31 -38 -39 -38 -86 0 -47 3 -55 38 -86 l37 -34 0 -120 0
-120 -27 -6 c-200 -44 -323 -167 -367 -366 -6 -25 -11 -28 -45 -28 l-39 0 -4
125 -3 125 -32 32 c-29 29 -40 33 -102 36 l-70 4 -27 53 c-57 113 -168 219
-289 276 -66 31 -164 59 -207 59 -26 0 -28 3 -28 44 l0 44 93 4 c108 4 151 25
194 90 21 32 27 54 31 121 4 71 8 84 29 100 31 24 53 69 53 105 0 17 -17 55
-40 91 -27 42 -40 73 -40 96 l0 35 55 0 c46 0 60 4 80 25 14 13 25 31 25 40 0
13 24 15 179 15 l180 0 3 -165z m-1162 45 c0 -35 -3 -40 -24 -40 -31 0 -85
-38 -113 -79 -28 -42 -31 -126 -6 -178 9 -20 42 -54 79 -81 55 -41 63 -51 64
-79 0 -42 -12 -42 -77 2 -118 79 -163 190 -163 403 l0 92 120 0 120 0 0 -40z
m560 -7 c0 -38 8 -59 41 -109 47 -73 46 -96 -7 -121 l-34 -17 0 -83 c0 -97
-14 -134 -63 -163 -27 -17 -51 -20 -144 -20 l-113 0 0 -93 c0 -92 -1 -94 -37
-145 -21 -28 -40 -51 -43 -51 -3 0 -22 23 -42 51 l-38 52 0 162 0 163 -70 53
c-75 57 -95 90 -85 136 9 45 38 65 100 70 l55 4 0 79 0 79 240 0 240 0 0 -47z
m1064 -609 c9 -8 16 -19 16 -24 0 -5 -7 -16 -16 -24 -8 -9 -19 -16 -24 -16
-11 0 -40 29 -40 40 0 5 7 16 16 24 8 9 19 16 24 16 5 0 16 -7 24 -16z m-1561
-204 c20 -27 37 -53 37 -58 0 -4 -15 -23 -34 -41 l-34 -33 -6 64 c-4 34 -9 75
-12 91 -8 40 7 33 49 -23z m243 23 c-3 -16 -8 -57 -12 -91 l-6 -64 -34 33
c-19 18 -34 37 -34 41 0 13 73 108 83 108 5 0 6 -12 3 -27z m221 -29 c84 -40
167 -112 217 -188 20 -30 36 -57 36 -60 0 -3 -75 -6 -166 -6 -136 0 -171 -3
-194 -16 -45 -27 -60 -63 -60 -146 l0 -75 -38 -11 c-21 -6 -51 -25 -67 -42
-28 -30 -30 -30 -135 -30 -92 0 -113 3 -150 23 -63 33 -90 88 -90 184 l0 73
-40 0 -40 0 0 -76 c0 -108 15 -150 75 -209 61 -62 101 -75 229 -75 l96 0 0
-81 0 -81 -147 4 c-134 3 -153 6 -204 30 -79 36 -133 89 -171 166 -30 61 -33
75 -33 157 1 127 36 225 119 334 50 66 156 148 166 129 4 -7 13 -69 19 -138 7
-69 15 -133 18 -144 4 -15 22 -2 99 75 l94 94 94 -94 c109 -108 98 -114 116
59 20 201 18 192 54 185 17 -3 63 -22 103 -41z m1218 -288 c76 -34 139 -97
178 -175 28 -58 32 -75 32 -151 0 -76 -4 -93 -32 -151 -39 -79 -102 -140 -181
-177 -82 -38 -202 -38 -284 0 -79 37 -142 98 -181 177 -29 59 -32 75 -32 151
0 70 5 95 27 141 85 185 295 267 473 185z m-757 -58 c17 -17 17 -599 0 -616
-17 -17 -519 -17 -536 0 -7 7 -12 24 -12 39 0 23 5 28 35 33 43 8 94 50 111
93 18 42 18 164 0 206 -17 43 -68 85 -111 93 l-35 6 0 67 c0 39 5 72 12 79 17
17 519 17 536 0z m-515 -239 c32 -15 47 -49 47 -109 0 -99 -27 -120 -155 -120
l-85 0 0 93 c0 84 2 96 23 114 12 11 29 23 37 26 27 10 108 7 133 -4z"/>
<path d="M2040 716 c0 -36 -4 -46 -21 -51 -27 -9 -59 -63 -59 -100 0 -47 30
-84 95 -118 63 -34 77 -59 43 -81 -26 -16 -52 4 -56 43 -3 29 -6 31 -43 31
-38 0 -39 -1 -39 -37 0 -44 30 -98 59 -108 17 -5 21 -15 21 -51 l0 -44 40 0
40 0 0 44 c0 36 4 46 21 51 27 9 59 63 59 100 0 47 -30 84 -95 118 -63 34 -77
59 -42 81 25 16 51 -4 55 -43 3 -29 6 -31 43 -31 38 0 39 1 39 38 0 43 -30 97
-59 107 -17 5 -21 15 -21 51 l0 44 -40 0 -40 0 0 -44z"/>
<path d="M1080 640 l0 -40 120 0 120 0 0 40 0 40 -120 0 -120 0 0 -40z"/>
</g>
</svg>
